Patient4_TMGait_0pt7_01_right_02_EMG.mot
version=1
nRows=40
nColumns=33
inDegrees=no
endheader
time	1LAddLong	2LGlutMax	3LGlutMed	4LIliopsoas	5LSemiMemb	6LBicFemLong	7LRecFem	8LVastMed	9LVastLat	10LGasMed	11LTibAnt	12lTibPost	13LPeroneusLong	14LSol	15LExtDigLong	16LFlexDigLong	17RAddLong	18RGlutMax	19RGlutMed	20RIliopsoas	21RSemiMemb	22RBicFemLong	23RRecFem	24RVastMed	25RVastLat	26RGasMed	27RTibAnt	28RTibPost	29RPeroneusLong	30RSol	31RExtDigLong	32RFlexDigLong
2.525	0.052948	0.19119	-0.015411	-0.006256	0.1062	-0.033722	-0.006104	-0.042572	-0.019531	-0.025024	0.001373	-0.009613	0.058899	-0.05127	-0.005341	0.003967	0.016327	0.14679	0.22705	-0.066986	0.00412	-0.069885	-0.32044	-0.01358	-0.012665	0.000458	0.33524	0.002747	-0.12543	-0.10757	-0.007782	-0.0177
2.526	0.04303	0.2832	0.076141	0.00351	0.031891	0.092163	0.010681	-0.028992	-0.10635	-0.019836	-0.002594	-0.006714	0.024261	-0.021057	0.011292	0.016174	0.027313	0.18616	0.1091	-0.015106	0.003052	-0.050659	-0.33829	-0.02243	-0.026398	-0.00061	0.26596	0.003357	1.2439	-0.10819	-0.005493	-0.008087
2.527	0.02182	0.27649	0.065155	0.006561	-0.016785	0.29648	-0.061188	-0.024872	-0.064087	-0.001678	0.001831	-0.016479	0.007019	0.016632	0.03006	0.005341	0.016479	0.12863	0.070343	-0.014191	-0.005493	-0.053406	-0.33218	-0.045471	-0.003662	0.001678	0.33615	0.007172	0.62393	-0.058441	-0.005798	-0.010986
2.528	0.012665	0.30319	0.057526	-0.005951	0.022583	0.16037	-0.10727	-0.002136	0.046082	-0.00946	0.041504	0.000153	0.016327	0.033417	0.021973	0.002441	0.009613	0.13962	0.053253	-0.049438	0.010223	-0.051422	-0.31311	-0.015717	-0.020142	-0.007935	0.15091	0.003967	0.033722	-0.031738	-0.004272	-0.007019
2.529	0.013275	0.33188	0.009766	0.004272	-0.02182	0.103	-0.053558	0.013123	0.11337	-0.021667	0.071716	-0.018463	0.027008	0.026245	-0.00946	0.001526	0.010376	0.18097	0.036621	-0.017242	0.016937	-0.055084	-0.34027	-0.030365	-0.013885	-0.009155	-0.057068	0.003967	-0.26413	-0.021362	-0.005951	-0.019531
2.53	0.010071	0.36606	0.026245	0.004272	-0.052948	0.20813	-0.048676	-0.002289	0.12299	0.000763	0.012207	-0.001984	0.01236	0.022278	0.008698	0.002441	0.017395	0.24826	0.068665	-0.080261	0.027313	0.016479	-0.29327	-0.027618	0.000153	-0.00946	0.019379	0.004578	-1.3586	-0.048676	-0.007477	-0.013275
2.531	0.009613	0.37888	0.031433	0.010376	0.06546	0.26932	-0.071259	-0.013885	0.13992	0.013885	-0.040283	-0.000916	-0.02243	0.016937	0.062866	0.004578	0.003052	0.15884	0.036774	-0.13062	0.059204	0.006409	-0.32867	-0.016327	-0.006866	-0.002899	0.11612	0.005798	-1.0904	-0.03006	-0.004578	-0.009766
2.532	0.010834	0.39032	0.112	0.019226	0.13351	0.2092	-0.020142	-0.022125	0.037384	0.001373	-0.098572	-0.029144	0.01358	0.026703	0.2005	0.00885	0.005493	0.13245	0.015411	-0.1004	0.05188	-0.021057	-0.3157	-0.045013	-0.018768	-0.004578	0.1915	0.004578	0.38086	-0.093231	-0.002136	-0.005951
2.533	-0.005646	0.37521	0.063477	0.012665	0.07431	0.1062	0.024872	-0.023804	-0.089264	0.007172	-0.069275	-0.010376	0.03006	0.078735	0.069733	0.003357	0.020142	0.12833	0.046692	0.004425	0.042572	-0.01297	-0.3273	-0.017242	-0.03067	-0.005951	0.17532	0.014191	0.62317	-0.039673	-0.002747	-0.003204
2.534	-0.015564	0.30029	0.055695	0.002899	0.038147	0.12482	0.031128	-0.018005	-0.11643	-0.01297	0.1387	-0.026855	0.038605	0.096741	0.15717	0.00885	0.027161	0.14191	0.042267	0.12909	0.024719	-0.027924	-0.31876	-0.03067	-0.014343	-0.016327	0.006714	0.007782	0.17487	0.039368	-0.00412	-0.002289
2.535	-0.024109	0.2684	0.037231	0.000763	0.007172	0.21881	0.13168	0.013885	-0.12024	-0.036621	0.31097	-0.017242	0.080261	0.092316	0.029297	0.001526	0.025787	0.11505	0.06134	0.17777	0.006714	0.014801	-0.29129	-0.057678	-0.019073	-0.01709	-0.10315	0.004425	0.23834	-0.02594	-0.003052	-0.016785
2.536	-0.031891	0.28	0.033264	0.007477	-0.031433	0.21301	0.13443	0.014343	-0.097656	-0.032196	0.16602	-0.011292	0.077972	0.13473	-0.13504	0.000153	0.027924	0.11429	0.007172	0.096436	-0.00885	0.06134	-0.32135	-0.052948	-0.030365	-0.010681	-0.025482	0.00885	0.49377	-0.012207	0.001373	-0.001678
2.537	-0.023499	0.28671	0.008392	-0.005493	-0.085602	0.02182	0.11276	0.019531	-0.017395	-0.009155	-0.18997	-0.016632	0.071411	0.098877	-0.17929	-0.002594	0.028076	0.12146	0.14557	-0.032806	-0.032501	-0.000763	-0.29907	-0.047302	0.00473	-0.003052	0.004578	0.005951	0.69321	-0.010071	-0.002899	-0.000305
2.538	-0.016479	0.26169	-0.044403	-0.005341	-0.067596	-0.059662	0.036926	0.017853	0.15945	0.00351	-0.25421	-0.009613	0.08194	0.026398	-0.28275	-0.012054	0.014343	0.10284	0.089264	-0.10437	-0.026093	-0.042114	-0.33585	-0.047455	0.005188	0.011749	0.006561	0.007324	-0.069427	-0.024414	-0.003052	-0.003967
2.539	-0.014343	0.22797	-0.041046	0.000305	0.009155	-0.02594	-0.019836	0.028687	0.41199	0.044098	-0.092316	-0.009918	0.18433	-0.014038	-0.24933	-0.004425	-0.02182	0.13534	0.077362	-0.056915	0.013123	-0.040894	-0.31967	-0.04425	0.012207	0.001984	0.058289	0.00412	-0.66086	-0.031433	-0.003662	-0.000763
2.54	-0.020599	0.20386	0.035858	0.008545	0.065308	0.022583	-0.056915	0.010376	0.51666	0.041046	0.05661	-0.018463	0.1767	-0.038147	-0.12497	-0.007324	-0.052338	0.16251	0.070038	-0.016022	0.10361	-0.01358	-0.31754	-0.029144	0.00885	-0.007935	0.11368	0.001068	-0.23239	-0.14755	-0.001831	-0.00946
2.541	-0.024567	0.15854	0.0914	0.004272	0.095673	0.033112	-0.023499	0.010071	0.49744	0.030823	-0.021057	-0.000305	0.094452	-0.006561	0.037537	0.003052	-0.078735	0.12772	0.1387	-0.024872	0.17975	-0.029144	-0.38849	-0.007935	0.018005	-0.001221	0.07309	0.008545	0.38483	-0.16266	-0.003052	-0.013428
2.542	-0.024109	0.15976	0.041351	0.002594	0.093536	-0.066986	0.035706	0.012054	0.37857	0.01297	0.039978	-0.00946	-0.037079	-0.023499	0.12711	-0.002289	-0.079193	0.1416	0.23926	-0.001373	0.16022	-0.087891	-0.35523	-0.088196	0.013885	-0.004425	0.039368	0.014038	0.39871	-0.24719	-0.001373	-0.010376
2.543	-0.033112	0.19394	0.029602	0.006866	0.015564	-0.12558	0.017242	0.00824	0.32059	-0.003204	0.021667	-0.002289	0.048676	0.029297	0.07782	-0.007019	-0.049286	0.21683	0.061493	0.11673	0.14908	-0.13046	-0.3595	-0.041656	0.034027	-0.007172	0.00473	0.012207	0.45288	-0.36072	0.000305	-0.004425
2.544	-0.030823	0.15503	0.006561	-0.004272	-0.10696	0.043335	0.001373	0.022125	0.1532	-0.01236	0.000305	0.006866	0.009613	0.036621	0.049133	-0.010681	-0.017395	0.1593	-0.14648	0.074005	0.10895	-0.00412	-0.3952	-0.032654	0.035858	-0.010986	0.025635	-0.008545	0.14801	-0.6247	-0.002747	-0.016785
2.545	-0.015869	0.19043	-0.043182	-0.007172	-0.16373	0.02243	0.048065	0.030975	-0.13565	-0.029449	-0.028534	-0.002899	-0.027618	-0.00824	-0.009918	-0.005035	0.002441	0.15884	0.12329	-0.03418	0.097656	0.097504	-0.34683	-0.047455	0.024414	-0.003662	0.062866	-0.12894	-0.27542	-0.46722	-0.002747	-0.02594
2.546	-0.006256	0.24719	-0.02243	-0.003815	-0.22705	-0.090485	0.086823	0.00824	-0.28839	-0.018158	-0.016022	0.007172	0.016022	-0.002747	0.018616	-0.010529	0.020447	0.21835	0.077057	-0.071411	0.080261	0.11063	-0.31677	-0.04837	0.035553	0.020142	0.087585	0.007629	-0.46722	0.15991	-0.002747	-0.011444
2.547	0.042267	0.28366	-0.002899	0.003204	-0.045624	-0.2063	0.062866	-0.006104	-0.15305	-0.016785	0.007477	0.000763	0.083008	-0.042419	0.014648	-0.010986	0.035553	0.23529	0.029297	-0.028534	0.077515	0.20309	-0.30991	-0.015869	0.014038	0.012817	0.057373	0.010529	-0.38055	0.18845	-0.00061	-0.023041
2.548	0.064697	0.30365	0.02121	-0.007782	0.12039	-0.19287	0.046844	-0.008698	-0.16266	-0.014496	0.003204	0.00351	0.008545	-0.02594	0.010376	-0.00885	0.046539	0.24857	-0.016327	0.029144	0.12817	0.27679	-0.3096	-0.009308	0.028687	-0.007324	0.005951	-0.00824	-0.1738	0.16876	-0.003967	-0.008087
2.549	0.05249	0.30441	-0.001984	0.00885	0.21729	-0.13107	0.063782	-0.011902	-0.31387	0.002136	0.041656	0.016785	-0.013733	-0.04776	0.005341	-0.012207	0.048065	0.20172	-0.084686	0.075226	0.18066	0.26215	-0.30273	0.006714	0.033569	0.013885	0.027313	0.013885	-0.067291	0.036926	-0.002136	-0.004272
2.55	0.049133	0.31052	0.048828	0.001678	0.15182	-0.087891	0.09552	-0.011597	-0.50232	-0.008545	0.066986	-0.005188	0.00824	-0.039673	-0.049438	-0.007782	0.040894	0.26855	0.005341	0.036163	0.13611	0.18906	-0.29953	0.039825	0.041046	0.000305	0.045471	0.011444	0.019073	-0.12024	-0.001526	-0.006561
2.551	0.040283	0.31357	0.021362	0.014038	0.13443	0.07431	-0.003357	0.005035	-0.54947	-0.005493	0.11429	0.017242	-0.011292	-0.007782	-0.04837	-0.003967	0.014191	0.26718	0.027008	-0.032196	0.15457	0.11414	-0.26871	0.019379	0.032806	-0.020447	0.061493	-0.016785	-0.30685	0.55237	-0.00412	-0.001221
2.552	0.023956	0.23972	-0.031281	0.016174	0.081177	0.224	-0.060577	0.030823	-0.33585	-0.002747	0.045929	0.011597	0.005035	-0.052032	-0.04364	-0.021515	0.016479	0.29251	-0.033569	0.03418	0.16815	0.085297	-0.27512	0.11444	0.042572	-0.013275	0.037994	-0.1181	-0.007782	0.56595	-0.004883	-0.000916
2.553	0.012665	0.17441	-0.052948	0.002289	0.04303	0.13046	-0.05249	0.03891	-0.12756	0.011139	-0.035706	0.009003	0.039673	-0.050201	0.002289	-0.010986	0.009918	0.35873	-0.042114	0.00946	0.16815	0.06073	-0.28061	0.076294	0.020752	0.024414	-0.021057	-0.10788	0.39703	0.5806	-0.002441	-0.000916
2.554	0.011444	0.15701	-0.045471	-0.001526	0.032501	-0.015717	-0.029144	-0.018311	-0.25665	-0.010681	-0.10147	0.026855	-0.006104	0.002136	0.28336	-0.01236	0.00885	0.31662	-0.0354	-0.005798	0.19562	0.034943	-0.23773	-0.013885	-0.012207	-0.001373	0.022278	0.2652	0.30182	0.52582	-0.003815	-0.008698
2.555	0.00824	0.19134	0.037842	-0.003967	0.01236	-0.10635	-0.075531	-0.029144	-0.29755	0.028992	-0.008392	0.023956	-0.077057	0.020752	0.06897	-0.001221	0.018158	0.29846	0.014801	0.02533	0.15243	0.01358	-0.25131	0.000305	-0.002441	-0.003357	0.058289	0.11536	0.091095	0.40192	-0.006714	-0.012207
2.556	-0.00412	0.16174	0.11963	-0.001526	0.039368	-0.07782	-0.003052	-0.046082	-0.39383	0.013275	0.025635	0.018311	-0.052948	0.068359	0.037842	0.005951	0.034485	0.25681	0.06073	0.071106	0.1387	-0.032806	-0.24078	0.013428	-0.012512	-0.017548	0.063324	-0.001831	-0.029602	-0.010834	-0.001984	-0.011139
2.557	-0.035095	0.12497	0.067139	0.005188	0.057678	-0.010681	-0.076752	-0.044708	-0.36652	-0.007477	0.18509	0.018768	0.08316	0.12466	-0.20935	0.017395	0.066986	0.29419	0.035095	0.10254	0.13641	-0.1387	-0.21683	-0.027313	-0.018311	-0.019531	0.043182	-0.000153	0.008392	-0.20874	-0.00412	-0.010986
2.558	0.0737	0.084839	0.057526	0.006866	0.026855	0.071106	-0.11444	-0.028076	-0.14252	-0.012665	0.3006	0.021057	0.067596	0.16968	0.31464	0.024109	0.07843	0.25207	0.019379	0.11322	0.11215	-0.19058	-0.21729	-0.030823	-0.03891	-0.014648	0.057068	-0.022583	-0.04425	-0.081177	-0.00412	-0.006409
2.559	0.031281	0.04425	0.001831	0.011139	-0.006104	0.15137	-0.030365	-0.002441	-0.027771	-0.021973	0.26276	0.042572	0.015717	0.21332	1.4532	0.036774	0.049286	0.25131	0.022278	0.057373	0.045013	-0.1886	-0.22339	-0.038147	-0.033264	-0.013275	0.043945	-0.000916	-0.11566	-0.15915	-0.004272	-0.015411
2.56	-0.004272	0.019989	0.015106	0.011597	-0.031281	0.2446	0.11078	0.005341	0.050964	0.006866	0.34958	0.027466	-0.095673	0.22034	1.2332	0.030975	0.00885	0.3064	0.17548	0.038757	0.004883	-0.076904	-0.27161	-0.087738	-0.029602	-0.002747	0.016174	0.003967	-0.16617	-0.34012	-0.005798	-0.0177
2.561	-0.000305	0.055695	0.007629	0.013885	-0.037842	0.43396	0.077515	0.007629	0.1712	-0.012207	0.10635	0.032043	-0.079803	0.22293	0.41657	0.029755	0.012512	0.27451	0.080719	0.1268	0.019226	-0.027771	-0.2272	-0.10742	-0.032959	-0.000763	0.014191	-0.012054	-0.17975	-0.37338	-0.002136	-0.01297
2.562	-0.013885	0.1268	0.009003	0.009155	-0.030823	0.53833	-0.047455	0.032654	0.21133	-0.067444	-0.10361	0.053711	0.13367	0.26154	-0.99258	0.021057	0.012665	0.28244	0.06012	0.14999	0.036011	-0.04837	-0.26016	-0.12024	-0.009308	0.004425	0.010223	-0.00885	0.063934	-0.3598	-0.003204	-0.015259
2.563	-0.024109	0.19577	0.019684	0.003815	-0.044861	0.57785	-0.12405	0.031281	0.25635	-0.04303	-0.18463	0.044098	0.21545	0.23895	-1.0452	0.020294	-0.023193	0.23346	0.071716	0.1889	0.079498	0.014648	-0.25497	-0.06073	0.003204	0.016174	-0.005493	-0.021667	0.24811	-0.40924	-0.002594	-0.016937
2.564	-0.025177	0.17838	0.025482	-0.007935	-0.053711	0.60898	-0.057068	0.016632	0.31372	-0.00946	-0.33493	0.036469	0.19867	0.082245	-1.1581	0.016479	-0.002136	0.23483	0.12711	0.12039	0.11139	0.055542	-0.24582	-0.065613	-0.003052	0.020447	0.018768	-0.014191	0.121	-0.39764	-0.004883	-0.017395
